<svg width="20" height="20" viewBox="0 0 20 20" fill="none" xmlns="http://www.w3.org/2000/svg">
<g clip-path="url(#clip0_56_13)">
<path d="M9.99968 13.3333C8.68114 13.3333 7.3922 12.9423 6.29588 12.2098C5.19955 11.4773 4.34506 10.4361 3.84048 9.21789C3.3359 7.99972 3.20387 6.65928 3.46111 5.36607C3.71834 4.07286 4.35328 2.88497 5.28563 1.95262C6.21798 1.02027 7.40587 0.385336 8.69908 0.128101C9.99228 -0.129134 11.3327 0.00288854 12.5509 0.507473C13.7691 1.01206 14.8103 1.86654 15.5428 2.96287C16.2754 4.0592 16.6663 5.34813 16.6663 6.66667C16.6644 8.43417 15.9613 10.1287 14.7115 11.3785C13.4617 12.6283 11.7672 13.3314 9.99968 13.3333ZM9.99968 15C8.19417 14.9992 6.43838 14.4084 4.99968 13.3175V17.9167C4.99967 18.3091 5.11052 18.6936 5.31945 19.0258C5.52839 19.358 5.82691 19.6245 6.18065 19.7945C6.53438 19.9645 6.92893 20.0311 7.31887 19.9866C7.7088 19.9422 8.07825 19.7885 8.38468 19.5433L9.73968 18.46C9.81351 18.401 9.90519 18.3689 9.99968 18.3689C10.0942 18.3689 10.1858 18.401 10.2597 18.46L11.6147 19.5433C11.9211 19.7885 12.2906 19.9422 12.6805 19.9866C13.0704 20.0311 13.465 19.9645 13.8187 19.7945C14.1724 19.6245 14.471 19.358 14.6799 19.0258C14.8888 18.6936 14.9997 18.3091 14.9997 17.9167V13.3175C13.5609 14.4083 11.8052 14.9991 9.99968 15Z" fill="#00414D"/>
</g>
<defs>
<clipPath id="clip0_56_13">
<rect width="20" height="20" fill="white"/>
</clipPath>
</defs>
</svg>
