<svg width="20" height="20" viewBox="0 0 20 20" fill="none" xmlns="http://www.w3.org/2000/svg">
<g clip-path="url(#clip0_48_493)">
<path d="M15.8333 3.33333H14.9167C14.5333 1.43333 12.85 0 10.8333 0H9.16667C7.15833 0 5.475 1.43333 5.08333 3.33333H4.16667C1.86667 3.33333 0 5.2 0 7.5V15.8333C0 18.1333 1.86667 20 4.16667 20H15.8333C18.1333 20 20 18.1333 20 15.8333V7.5C20 5.2 18.1333 3.33333 15.8333 3.33333ZM9.16667 1.66667H10.8333C11.9167 1.66667 12.8333 2.36667 13.1833 3.33333H6.825C7.16667 2.36667 8.08333 1.66667 9.175 1.66667H9.16667Z" fill="#00414D"/>
</g>
<defs>
<clipPath id="clip0_48_493">
<rect width="20" height="20" fill="white"/>
</clipPath>
</defs>
</svg>
