<svg width="20" height="20" viewBox="0 0 20 20" fill="none" xmlns="http://www.w3.org/2000/svg">
<g clip-path="url(#clip0_45_444)">
<path d="M2.22203 13.345C2.2662 13.3516 6.25453 14.025 9.1662 14.1466V18.355C6.25536 18.4766 2.2662 19.1508 2.22203 19.1575C1.8412 19.2158 1.4662 19.035 1.31536 18.7241C1.2962 18.6833 0.832031 17.7133 0.832031 16.2516C0.832031 14.79 1.29536 13.82 1.31536 13.7791C1.46703 13.4683 1.8412 13.2858 2.22203 13.345ZM15.8329 9.23415C14.1095 9.97665 12.2904 10.5066 10.3837 10.8033C10.1245 10.8433 9.87703 10.8433 9.62037 10.8033C7.71036 10.5066 5.89036 9.97581 4.1662 9.23331V11.955C5.83786 12.195 8.29286 12.4991 9.99953 12.4991C11.7062 12.4991 14.1762 12.1933 15.8329 11.9558V9.23415ZM19.1662 4.99998C19.1562 4.74081 19.0245 4.46748 18.8112 4.31748C16.217 2.52331 13.307 1.33165 10.1279 0.843313C10.042 0.82998 9.95703 0.82998 9.8712 0.843313C6.69536 1.33665 3.7737 2.50581 1.18786 4.31748C0.974531 4.46748 0.842865 4.74081 0.832865 4.99998C0.842865 5.25915 0.974531 5.53248 1.18786 5.68248C3.7737 7.49415 6.69536 8.66331 9.8712 9.15665C9.95703 9.16998 10.042 9.16998 10.1279 9.15665C12.4554 8.79498 14.6445 8.06665 16.6662 6.99248V9.58331C16.6662 10.2741 17.2254 10.8333 17.9162 10.8333C18.607 10.8333 19.1662 10.2741 19.1662 9.58331C19.1687 9.37915 19.1629 5.18165 19.1662 4.99998ZM17.777 13.345C17.7329 13.3516 13.7445 14.025 10.8329 14.1466V18.355C13.7437 18.4766 17.7329 19.1508 17.777 19.1575C18.1395 19.2158 18.5354 19.0383 18.6837 18.7241C18.7029 18.6833 19.167 17.7133 19.167 16.2516C19.167 14.79 18.7037 13.82 18.6837 13.7791C18.532 13.4683 18.1537 13.285 17.777 13.345Z" fill="#00414D"/>
</g>
<defs>
<clipPath id="clip0_45_444">
<rect width="20" height="20" fill="white"/>
</clipPath>
</defs>
</svg>
