<svg width="20" height="20" viewBox="0 0 20 20" fill="none" xmlns="http://www.w3.org/2000/svg">
<path d="M15.8333 3.33331H4.16667C1.86583 3.33331 0 5.19831 0 7.49998V12.5C0 14.8008 1.86583 16.6666 4.16667 16.6666H15.8333C18.1308 16.6666 20 14.7975 20 12.5V7.49998C20 5.20248 18.1308 3.33331 15.8333 3.33331ZM6.76667 13.3333C6.495 13.3333 6.25917 13.1458 6.19833 12.8808L5.9775 11.9166H3.97L3.74167 12.8841C3.67917 13.1475 3.445 13.3333 3.17417 13.3333C2.79833 13.3333 2.52083 12.9825 2.60667 12.6166L3.78417 7.62248C3.95167 6.90081 4.73167 6.45081 5.4975 6.77165C5.86333 6.92498 6.10917 7.27665 6.19917 7.66331L7.335 12.62C7.41833 12.985 7.14167 13.3333 6.76667 13.3333ZM18.3333 12.5C18.3333 13.8783 17.2117 15 15.8333 15H10V4.99998H15.8333C17.2117 4.99998 18.3333 6.12165 18.3333 7.49998V12.5ZM17.0833 8.01331V8.03081C17.0833 8.31415 16.8533 8.54415 16.57 8.54415H16.3067C16.2058 9.60665 15.7925 10.82 14.9675 11.7658C15.4192 12.04 15.9608 12.2358 16.6208 12.2983C16.8833 12.3233 17.0833 12.545 17.0833 12.8091V12.8266C17.0833 13.1316 16.82 13.3666 16.5167 13.3375C15.5692 13.2466 14.8008 12.93 14.1767 12.4858C13.5492 12.9341 12.7717 13.2483 11.8167 13.3375C11.5133 13.3658 11.2508 13.1308 11.2508 12.8258V12.8083C11.2508 12.5408 11.4575 12.3216 11.7242 12.2966C12.3808 12.2341 12.9225 12.0408 13.3717 11.7675C13.0958 11.4516 12.8658 11.1058 12.6775 10.745C12.5 10.405 12.7517 9.99831 13.135 9.99831H13.1433C13.3317 9.99831 13.5075 10.1 13.5942 10.2666C13.7483 10.56 13.9408 10.8425 14.1717 11.1016C14.8533 10.335 15.165 9.34498 15.2575 8.54248H11.765C11.4817 8.54248 11.2517 8.31248 11.2517 8.02915V8.01165C11.2517 7.72831 11.4817 7.49831 11.765 7.49831H13.6458V7.17831C13.6458 6.89498 13.8758 6.66498 14.1592 6.66498H14.1767C14.46 6.66498 14.69 6.89498 14.69 7.17831V7.49831H16.5708C16.8542 7.49831 17.0842 7.72831 17.0842 8.01165L17.0833 8.01331ZM5.05417 7.88581L5.71 10.75H4.24583L4.92167 7.88581C4.92917 7.85498 4.95583 7.83331 4.9875 7.83331C5.01917 7.83331 5.0475 7.85498 5.05417 7.88581Z" fill="#00414D"/>
</svg>
