<svg width="20" height="20" viewBox="0 0 20 20" fill="none" xmlns="http://www.w3.org/2000/svg">
<path d="M17.5003 17.5V20H2.50033V17.5C2.50033 15.6617 3.99533 14.1667 5.83366 14.1667H14.167C16.0053 14.1667 17.5003 15.6617 17.5003 17.5ZM18.3337 5V9.16667H16.667V12.5H3.33366V9.16667H1.66699V5H3.33366V4.16667C3.33366 2.78833 4.45533 1.66667 5.83366 1.66667H9.16699V0H10.8337V1.66667H14.167C15.5453 1.66667 16.667 2.78833 16.667 4.16667V5H18.3337ZM9.16699 7.08333C9.16699 6.39333 8.60699 5.83333 7.91699 5.83333C7.22699 5.83333 6.66699 6.39333 6.66699 7.08333C6.66699 7.77333 7.22699 8.33333 7.91699 8.33333C8.60699 8.33333 9.16699 7.77333 9.16699 7.08333ZM13.3337 7.08333C13.3337 6.39333 12.7737 5.83333 12.0837 5.83333C11.3937 5.83333 10.8337 6.39333 10.8337 7.08333C10.8337 7.77333 11.3937 8.33333 12.0837 8.33333C12.7737 8.33333 13.3337 7.77333 13.3337 7.08333Z" fill="#00414D"/>
</svg>
